<?xml version="1.0" encoding="UTF-8"?>
<svg id="Calque_2" xmlns="http://www.w3.org/2000/svg" xmlns:xlink="http://www.w3.org/1999/xlink" viewBox="0 0 283.46 400.82">
  <defs>
    <style>
      .cls-1 {
        fill: url(#Dégradé_sans_nom_2);
      }

      .cls-2 {
        fill: url(#Dégradé_sans_nom_3);
      }

      .cls-3 {
        fill: #d9cab8;
      }

      .cls-4 {
        fill: #fff;
      }

      .cls-5 {
        fill: #e51717;
      }
    </style>
    <linearGradient id="Dégradé_sans_nom_3" data-name="Dégradé sans nom 3" x1="141.66" y1="117.35" x2="141.66" y2="0" gradientUnits="userSpaceOnUse">
      <stop offset="0" stop-color="#398fe5"/>
      <stop offset=".27" stop-color="#358be1"/>
      <stop offset=".52" stop-color="#2a80d5"/>
      <stop offset=".76" stop-color="#196ec3"/>
      <stop offset="1" stop-color="#0054a8"/>
      <stop offset="1" stop-color="#0054a8"/>
    </linearGradient>
    <linearGradient id="Dégradé_sans_nom_2" data-name="Dégradé sans nom 2" x1="141.73" y1="400.82" x2="141.73" y2="117.35" gradientUnits="userSpaceOnUse">
      <stop offset="0" stop-color="#bfaa8f"/>
      <stop offset=".32" stop-color="#c1ac92"/>
      <stop offset=".62" stop-color="#c8b59e"/>
      <stop offset=".91" stop-color="#d4c4b0"/>
      <stop offset="1" stop-color="#d9cab8"/>
    </linearGradient>
  </defs>
  <g id="info">
    <g>
      <g>
        <rect class="cls-2" width="283.32" height="117.35"/>
        <rect class="cls-1" y="117.35" width="283.46" height="283.46"/>
      </g>
      <g>
        <path class="cls-4" d="M42.32,36.63v49.71c0,14.36-2.78,21.42-16.74,21.42-1.3,0-3.11-.1-4.3-.2v-11.21c.5.02,1,.02,1.42.02,4.51,0,5.65-1.79,5.65-7.22v-52.51h13.97ZM28.35,28.35v-12.5h13.97v12.5h-13.97Z"/>
        <path class="cls-4" d="M96.38,74.25c0,4.69.37,11.65.69,13.11h-13.24c-.39-1.05-.69-3.77-.72-5.08-1.87,2.98-5.45,6.22-14.26,6.22-12.26,0-17.35-8.02-17.35-15.87,0-11.31,8.98-16.87,24.13-16.87h7.11v-3.16c0-3.66-1.3-7.17-7.75-7.17-5.93,0-7.24,2.57-7.87,6.25h-13.31c.74-8.91,6.24-16.29,21.67-16.21,13.43.08,20.89,5.27,20.89,17.39v21.38ZM82.8,64.3h-5.77c-8.53,0-11.52,2.69-11.52,7.44,0,3.65,2.23,6.73,7.29,6.73,8.83,0,10-6.11,10-12.86v-1.31Z"/>
        <path class="cls-4" d="M105.1,76.87c.83-.98,24.28-28.26,25.03-29.22h-23.78v-11.01h39.55v10.86c-.74.94-23.79,27.91-24.54,28.86h26.29l-1.68,11.01h-40.86v-10.49Z"/>
        <path class="cls-4" d="M153.61,76.87c.83-.98,24.28-28.26,25.03-29.22h-23.78v-11.01h39.55v10.86c-.74.94-23.79,27.91-24.54,28.86h26.29l-1.68,11.01h-40.86v-10.49Z"/>
        <path class="cls-3" d="M42.23,202.88v23.92h-13.89v-57.69c0-4.38,0-8.48-.1-12.47h13.54c.2,1.37.44,4.43.45,6.35,2.14-3.71,6.64-7.51,14.73-7.51,11.31,0,20.1,9.38,20.1,25.32,0,17.76-9.79,27.71-22.07,27.71-7.09,0-10.84-2.65-12.76-5.63ZM62.89,181.3c0-9.46-3.81-14.6-10.44-14.6-7.98,0-10.78,5.06-10.78,15.37,0,9.69,2.58,15.32,10.2,15.32s11.02-5.74,11.02-16.09Z"/>
        <path class="cls-3" d="M86.75,207.36v-71.51h13.97v71.51h-13.97Z"/>
        <path class="cls-3" d="M154.79,194.25c0,4.69.38,11.65.69,13.11h-13.24c-.39-1.05-.69-3.77-.72-5.08-1.87,2.98-5.45,6.22-14.26,6.22-12.26,0-17.35-8.02-17.35-15.87,0-11.31,8.98-16.87,24.13-16.87h7.11v-3.16c0-3.66-1.3-7.17-7.75-7.17-5.93,0-7.24,2.57-7.87,6.25h-13.31c.74-8.91,6.24-16.29,21.67-16.21,13.43.08,20.89,5.27,20.89,17.39v21.38ZM141.21,184.3h-5.77c-8.53,0-11.52,2.69-11.52,7.44,0,3.65,2.23,6.73,7.29,6.73,8.83,0,10-6.11,10-12.86v-1.31Z"/>
        <path class="cls-3" d="M213.42,201.3c0,16.22-6.05,26.46-25.1,26.46s-22.08-10.2-22.58-16.1h14.2c.97,3.53,3.61,5.88,9.02,5.88,9.05,0,10.78-5.5,10.78-15.37v-2.5c-2.64,4.43-6.9,7.08-14.22,7.08-13.24,0-20.9-10.81-20.9-24.66,0-15.89,9.52-26.62,22.07-26.62,8.63,0,12.21,3.98,13.02,6.38.09-1.36.45-4.39.55-5.23h13.28c-.09,4.32-.12,9.53-.12,14.63v30.04ZM178.97,181.51c0,8.76,4.3,13.95,10.54,13.95,8.37,0,10.66-5.66,10.66-14.36s-1.49-14.41-10.37-14.41c-6.08,0-10.84,4.66-10.84,14.82Z"/>
        <path class="cls-3" d="M237.21,185c0,6.33,3.11,12.57,10.16,12.57,5.87,0,7.56-2.49,8.83-5.47h13.96c-1.87,6.43-7.44,16.41-23.16,16.41-16.66,0-23.86-12.35-23.86-25.84,0-15.58,7.98-27.19,24.36-27.19,17.38,0,23.23,12.56,23.23,25.26,0,1.61,0,2.88-.18,4.26h-33.34ZM256.77,176.37c-.11-5.89-2.46-10.85-9.31-10.85s-9.44,4.79-9.97,10.85h19.28Z"/>
      </g>
      <g>
        <polygon class="cls-5" points="56.69 344.13 56.69 344.13 56.69 344.13 56.69 344.13"/>
        <polygon class="cls-5" points="56.69 344.13 56.69 344.13 56.69 344.13 56.69 344.13"/>
        <path class="cls-5" d="M56.69,344.13l24.55,14.18c2.41-4.17,3.79-9.01,3.79-14.18h-28.35Z"/>
        <path class="cls-4" d="M42.52,368.68c4.17,2.41,9.01,3.79,14.18,3.79v-28.35l-14.18,24.55Z"/>
        <path class="cls-5" d="M32.14,358.3c2.49,4.3,6.08,7.89,10.38,10.38l14.18-24.55-24.55,14.18Z"/>
        <path class="cls-4" d="M28.35,344.13c0,5.16,1.38,10.01,3.79,14.18l24.55-14.18h-28.35Z"/>
        <path class="cls-5" d="M56.69,344.13l-24.55-14.18c-2.41,4.17-3.79,9.01-3.79,14.18h28.35Z"/>
        <path class="cls-5" d="M56.69,372.47c5.16,0,10.01-1.38,14.18-3.79l-14.18-24.55v28.35Z"/>
        <path class="cls-4" d="M56.69,344.13l14.18,24.55c4.3-2.49,7.89-6.08,10.38-10.38l-24.55-14.18h0Z"/>
        <path class="cls-4" d="M42.52,319.57c-4.3,2.49-7.89,6.08-10.38,10.38l24.55,14.18-14.18-24.55Z"/>
        <path class="cls-4" d="M56.69,344.13h28.35c0-5.16-1.38-10.01-3.79-14.18l-24.55,14.18h0Z"/>
        <path class="cls-4" d="M70.87,319.57c-4.17-2.41-9.01-3.79-14.18-3.79v28.35l14.18-24.55Z"/>
        <path class="cls-5" d="M56.69,344.13l24.55-14.18c-2.49-4.3-6.08-7.89-10.38-10.38l-14.18,24.55h0Z"/>
        <path class="cls-5" d="M56.69,315.78c-5.16,0-10.01,1.38-14.18,3.79l14.18,24.55v-28.35Z"/>
      </g>
      <g>
        <polygon class="cls-5" points="141.73 344.13 141.73 344.13 141.73 344.13 141.73 344.13"/>
        <polygon class="cls-5" points="141.73 344.13 141.73 344.13 141.73 344.13 141.73 344.13"/>
        <path class="cls-5" d="M141.73,344.13l24.55,14.18c2.41-4.17,3.79-9.01,3.79-14.18h-28.35Z"/>
        <path class="cls-4" d="M127.56,368.68c4.17,2.41,9.01,3.79,14.18,3.79v-28.35l-14.18,24.55Z"/>
        <path class="cls-5" d="M117.18,358.3c2.49,4.3,6.08,7.89,10.38,10.38l14.18-24.55-24.55,14.18Z"/>
        <path class="cls-4" d="M113.39,344.13c0,5.16,1.38,10.01,3.79,14.18l24.55-14.18h-28.35Z"/>
        <path class="cls-5" d="M141.73,344.13l-24.55-14.18c-2.41,4.17-3.79,9.01-3.79,14.18h28.35Z"/>
        <path class="cls-5" d="M141.73,372.47c5.16,0,10.01-1.38,14.18-3.79l-14.18-24.55v28.35Z"/>
        <path class="cls-4" d="M141.73,344.13l14.18,24.55c4.3-2.49,7.89-6.08,10.38-10.38l-24.55-14.18h0Z"/>
        <path class="cls-4" d="M127.56,319.57c-4.3,2.49-7.89,6.08-10.38,10.38l24.55,14.18-14.18-24.55Z"/>
        <path class="cls-4" d="M141.73,344.13h28.35c0-5.16-1.38-10.01-3.79-14.18l-24.55,14.18h0Z"/>
        <path class="cls-4" d="M155.91,319.57c-4.17-2.41-9.01-3.79-14.18-3.79v28.35l14.18-24.55Z"/>
        <path class="cls-5" d="M141.73,344.13l24.55-14.18c-2.49-4.3-6.08-7.89-10.38-10.38l-14.18,24.55h0Z"/>
        <path class="cls-5" d="M141.73,315.78c-5.16,0-10.01,1.38-14.18,3.79l14.18,24.55v-28.35Z"/>
      </g>
      <g>
        <polygon class="cls-5" points="226.77 344.13 226.77 344.13 226.77 344.13 226.77 344.13"/>
        <polygon class="cls-5" points="226.77 344.13 226.77 344.13 226.77 344.13 226.77 344.13"/>
        <path class="cls-5" d="M226.77,344.13l24.55,14.18c2.41-4.17,3.79-9.01,3.79-14.18h-28.35Z"/>
        <path class="cls-4" d="M212.6,368.68c4.17,2.41,9.01,3.79,14.18,3.79v-28.35l-14.18,24.55Z"/>
        <path class="cls-5" d="M202.22,358.3c2.49,4.3,6.08,7.89,10.38,10.38l14.18-24.55-24.55,14.18Z"/>
        <path class="cls-4" d="M198.42,344.13c0,5.16,1.38,10.01,3.79,14.18l24.55-14.18h-28.35Z"/>
        <path class="cls-5" d="M226.77,344.13l-24.55-14.18c-2.41,4.17-3.79,9.01-3.79,14.18h28.35Z"/>
        <path class="cls-5" d="M226.77,372.47c5.16,0,10.01-1.38,14.18-3.79l-14.18-24.55v28.35Z"/>
        <path class="cls-4" d="M226.77,344.13l14.18,24.55c4.3-2.49,7.89-6.08,10.38-10.38l-24.55-14.18h0Z"/>
        <path class="cls-4" d="M212.6,319.57c-4.3,2.49-7.89,6.08-10.38,10.38l24.55,14.18-14.18-24.55Z"/>
        <path class="cls-4" d="M226.77,344.13h28.35c0-5.16-1.38-10.01-3.79-14.18l-24.55,14.18h0Z"/>
        <path class="cls-4" d="M240.95,319.57c-4.17-2.41-9.01-3.79-14.18-3.79v28.35l14.18-24.55Z"/>
        <path class="cls-5" d="M226.77,344.13l24.55-14.18c-2.49-4.3-6.08-7.89-10.38-10.38l-14.18,24.55h0Z"/>
        <path class="cls-5" d="M226.77,315.78c-5.16,0-10.01,1.38-14.18,3.79l14.18,24.55v-28.35Z"/>
      </g>
      <g>
        <path class="cls-4" d="M28.35,276.8h1.03v2.86h3.46v-2.86h1.03v6.94h-1.03v-3.21h-3.46v3.21h-1.03v-6.94Z"/>
        <path class="cls-4" d="M39.89,281.19c0,1.48-.86,2.67-2.42,2.67-1.48,0-2.37-1.13-2.37-2.66s.88-2.67,2.43-2.67c1.43,0,2.36,1.06,2.36,2.65ZM37.94,276.41l1.12,1.52h-.94l-.64-.96-.62.96h-.94l1.11-1.52h.9ZM36.11,281.2c0,1.09.53,1.86,1.4,1.86s1.38-.74,1.38-1.85-.5-1.86-1.4-1.86-1.38.71-1.38,1.86Z"/>
        <path class="cls-4" d="M40.37,278.65h.86v-1.48h.98v1.48h1.1v.78h-1.1v2.89c0,.47.12.71.57.71.11,0,.29,0,.42-.04v.72c-.23.08-.55.09-.8.09-.83,0-1.18-.43-1.18-1.29v-3.09h-.86v-.78Z"/>
        <path class="cls-4" d="M44.82,281.39c0,.96.49,1.67,1.32,1.67.76,0,1-.38,1.16-.74h.99c-.2.65-.74,1.55-2.18,1.55-1.61,0-2.28-1.29-2.28-2.61,0-1.53.77-2.72,2.34-2.72,1.66,0,2.21,1.31,2.21,2.43,0,.16,0,.28-.01.42h-3.54ZM47.38,280.72c0-.79-.4-1.43-1.23-1.43s-1.22.59-1.31,1.43h2.53Z"/>
        <path class="cls-4" d="M49.49,283.74v-7.33h.98v7.33h-.98Z"/>
        <path class="cls-4" d="M54.61,276.8h2.73c1.51,0,2.18.79,2.18,1.74,0,.8-.45,1.32-.97,1.51.48.16,1.2.65,1.2,1.65,0,1.29-.99,2.04-2.33,2.04h-2.81v-6.94ZM57.17,279.66c.95,0,1.32-.38,1.32-1.02,0-.59-.43-1-1.2-1h-1.67v2.02h1.55ZM55.62,282.91h1.65c.86,0,1.42-.4,1.42-1.22,0-.72-.46-1.19-1.57-1.19h-1.5v2.41Z"/>
        <path class="cls-4" d="M61.62,281.39c0,.96.49,1.67,1.32,1.67.76,0,1-.38,1.16-.74h.99c-.2.65-.74,1.55-2.18,1.55-1.61,0-2.28-1.29-2.28-2.61,0-1.53.77-2.72,2.34-2.72,1.66,0,2.21,1.31,2.21,2.43,0,.16,0,.28-.01.42h-3.54ZM64.18,280.72c0-.79-.4-1.43-1.23-1.43s-1.22.59-1.31,1.43h2.53Z"/>
        <path class="cls-4" d="M66.29,283.74v-7.33h.98v7.33h-.98Z"/>
        <path class="cls-4" d="M69.2,278.65c.65,2.01,1.13,3.56,1.27,4.19h0c.13-.62.66-2.15,1.36-4.19h.99l-1.86,5.09h-1.07l-1.77-5.09h1.05Z"/>
        <path class="cls-4" d="M74.27,281.39c0,.96.49,1.67,1.32,1.67.76,0,1-.38,1.16-.74h.99c-.2.65-.74,1.55-2.18,1.55-1.61,0-2.28-1.29-2.28-2.61,0-1.53.77-2.72,2.34-2.72,1.66,0,2.21,1.31,2.21,2.43,0,.16,0,.28-.01.42h-3.54ZM76.83,280.72c0-.79-.4-1.43-1.23-1.43s-1.22.59-1.31,1.43h2.53ZM77.41,276.31l-1.54,1.52h-.91l1.26-1.52h1.2Z"/>
        <path class="cls-4" d="M83.3,276.41v5.9c0,.47,0,.94,0,1.43h-.94c-.02-.14-.04-.5-.05-.69-.25.51-.75.81-1.57.81-1.3,0-2.11-1.05-2.11-2.61s.87-2.71,2.28-2.71c.87,0,1.27.34,1.4.62v-2.74h.98ZM79.66,281.22c0,1.18.55,1.82,1.32,1.82,1.15,0,1.38-.86,1.38-1.91s-.21-1.78-1.32-1.78c-.87,0-1.39.69-1.39,1.87Z"/>
        <path class="cls-4" d="M85.4,281.39c0,.96.49,1.67,1.32,1.67.76,0,1-.38,1.16-.74h.99c-.2.65-.74,1.55-2.18,1.55-1.61,0-2.28-1.29-2.28-2.61,0-1.53.77-2.72,2.34-2.72,1.66,0,2.21,1.31,2.21,2.43,0,.16,0,.28-.01.42h-3.54ZM86.08,276.31l1.25,1.52h-.91l-1.54-1.52h1.21ZM87.96,280.72c0-.79-.4-1.43-1.23-1.43s-1.22.59-1.31,1.43h2.53Z"/>
        <path class="cls-4" d="M90.06,280.04c0-.67,0-1.08,0-1.38h.96c.01.14.03.56.03,1.01.26-.67.85-1.11,1.7-1.13v.97c-1.04.02-1.7.51-1.7,1.82v2.42h-.98v-3.71Z"/>
        <path class="cls-4" d="M94.22,281.39c0,.96.49,1.67,1.32,1.67.76,0,1-.38,1.16-.74h.99c-.2.65-.74,1.55-2.18,1.55-1.61,0-2.28-1.29-2.28-2.61,0-1.53.77-2.72,2.34-2.72,1.66,0,2.21,1.31,2.21,2.43,0,.16,0,.28-.01.42h-3.54ZM96.78,280.72c0-.79-.4-1.43-1.23-1.43s-1.22.59-1.31,1.43h2.53Z"/>
        <path class="cls-4" d="M28.4,288.77h4.34v.63h-3.64v2.47h3.41v.63h-3.41v3.25h-.71v-6.98Z"/>
        <path class="cls-4" d="M37.51,294.28c0,.49,0,1.23.01,1.47h-.65c-.02-.13-.03-.45-.03-.82-.23.58-.73.94-1.58.94-.78,0-1.65-.35-1.65-1.83v-3.32h.66v3.17c0,.7.22,1.37,1.14,1.37,1.03,0,1.43-.58,1.43-1.93v-2.6h.67v3.56Z"/>
        <path class="cls-4" d="M39.09,292.08c0-.78,0-1.16-.01-1.37h.66c.01.15.02.51.02,1.08.28-.72.9-1.17,1.72-1.2v.69c-1.04.05-1.72.69-1.72,1.92v2.54h-.67v-3.66Z"/>
        <path class="cls-4" d="M43.12,293.22c.45-.5,1.71-1.8,2.39-2.51h.82l-1.95,1.98,2.18,3.05h-.8l-1.85-2.62-.8.77v1.85h-.67v-7.35h.67v4.83Z"/>
        <path class="cls-4" d="M51.02,294.72c0,.45.04.87.07,1.02h-.64c-.04-.12-.07-.35-.09-.72-.17.36-.6.84-1.61.84-1.18,0-1.68-.76-1.68-1.52,0-1.11.87-1.62,2.37-1.62h.91v-.47c0-.48-.15-1.09-1.2-1.09-.94,0-1.08.48-1.18.88h-.66c.06-.62.44-1.45,1.86-1.45,1.18,0,1.84.49,1.84,1.62v2.51ZM50.37,293.23h-.91c-1.06,0-1.69.29-1.69,1.08,0,.58.41.99,1.08.99,1.33,0,1.52-.89,1.52-1.9v-.17Z"/>
        <path class="cls-4" d="M55.84,295.05v2.68h-.67v-5.79c0-.41,0-.85-.01-1.23h.65c.02.18.02.48.02.85.29-.56.83-.97,1.71-.97,1.18,0,2.01.99,2.01,2.5,0,1.8-.97,2.76-2.19,2.76-.85,0-1.3-.37-1.54-.81ZM58.87,293.12c0-1.12-.53-1.93-1.46-1.93-1.14,0-1.6.72-1.6,2.02s.37,2.06,1.53,2.06c.99,0,1.53-.83,1.53-2.15Z"/>
        <path class="cls-4" d="M64.35,294.72c0,.45.04.87.07,1.02h-.64c-.04-.12-.07-.35-.09-.72-.17.36-.6.84-1.61.84-1.18,0-1.68-.76-1.68-1.52,0-1.11.87-1.62,2.37-1.62h.91v-.47c0-.48-.15-1.09-1.2-1.09-.94,0-1.08.48-1.18.88h-.66c.06-.62.44-1.45,1.86-1.45,1.18,0,1.84.49,1.84,1.62v2.51ZM63.7,293.23h-.91c-1.06,0-1.69.29-1.69,1.08,0,.58.41.99,1.08.99,1.33,0,1.52-.89,1.52-1.9v-.17Z"/>
        <path class="cls-4" d="M66.07,294.33c.16.61.6.97,1.34.97.82,0,1.15-.37,1.15-.88s-.24-.78-1.29-1.03c-1.36-.33-1.67-.74-1.67-1.42s.52-1.37,1.73-1.37,1.75.72,1.82,1.43h-.66c-.08-.38-.37-.87-1.19-.87s-1.03.39-1.03.76c0,.42.23.63,1.19.87,1.47.35,1.8.83,1.8,1.59,0,.9-.72,1.5-1.87,1.5-1.22,0-1.86-.63-1.99-1.53h.67Z"/>
        <path class="cls-4" d="M70.74,294.33c.16.61.6.97,1.34.97.82,0,1.15-.37,1.15-.88s-.24-.78-1.29-1.03c-1.36-.33-1.67-.74-1.67-1.42s.52-1.37,1.73-1.37,1.75.72,1.82,1.43h-.66c-.08-.38-.37-.87-1.19-.87s-1.03.39-1.03.76c0,.42.23.63,1.19.87,1.47.35,1.8.83,1.8,1.59,0,.9-.72,1.5-1.87,1.5-1.22,0-1.86-.63-1.99-1.53h.67Z"/>
        <path class="cls-4" d="M75.71,288.39v3.12c.27-.49.75-.92,1.62-.92.76,0,1.7.4,1.7,1.95v3.2h-.67v-3.08c0-.93-.41-1.46-1.2-1.46-.95,0-1.45.61-1.45,1.76v2.78h-.67v-7.35h.67Z"/>
        <path class="cls-4" d="M84.78,293.22c0,1.42-.8,2.64-2.32,2.64-1.4,0-2.25-1.12-2.25-2.63s.82-2.64,2.31-2.64c1.36,0,2.26,1.05,2.26,2.62ZM80.91,293.23c0,1.15.6,2.05,1.59,2.05s1.58-.83,1.58-2.04-.56-2.05-1.6-2.05-1.57.87-1.57,2.05ZM81.29,289.41v-1.03h.62v1.03h-.62ZM83.07,289.41v-1.03h.62v1.03h-.62Z"/>
        <path class="cls-4" d="M86.65,288.39v3.12c.27-.49.75-.92,1.62-.92.76,0,1.7.4,1.7,1.95v3.2h-.67v-3.08c0-.93-.41-1.46-1.2-1.46-.95,0-1.45.61-1.45,1.76v2.78h-.67v-7.35h.67Z"/>
        <path class="cls-4" d="M91.83,293.33c0,1.17.6,1.94,1.51,1.94s1.17-.48,1.34-.87h.68c-.21.65-.74,1.46-2.04,1.46-1.55,0-2.17-1.3-2.17-2.59,0-1.46.73-2.68,2.23-2.68,1.58,0,2.09,1.32,2.09,2.33,0,.15,0,.28-.01.41h-3.63ZM94.79,292.81c0-.92-.5-1.65-1.42-1.65s-1.4.67-1.5,1.65h2.93Z"/>
        <path class="cls-4" d="M96.08,296.89c.51-1.04.67-1.92.71-2.51h.68c-.08.86-.4,1.87-.81,2.51h-.57Z"/>
        <path class="cls-4" d="M105.47,293.22c0,1.42-.8,2.64-2.32,2.64-1.4,0-2.25-1.12-2.25-2.63s.82-2.64,2.31-2.64c1.36,0,2.26,1.05,2.26,2.62ZM101.6,293.23c0,1.15.6,2.05,1.59,2.05s1.58-.83,1.58-2.04-.56-2.05-1.6-2.05-1.57.87-1.57,2.05Z"/>
        <path class="cls-4" d="M107.34,293.22c.45-.5,1.71-1.8,2.39-2.51h.82l-1.95,1.98,2.18,3.05h-.8l-1.85-2.62-.8.77v1.85h-.67v-7.35h.67v4.83Z"/>
        <path class="cls-4" d="M110.94,290.71h.91v-1.53h.67v1.53h1.16v.58h-1.16v3.12c0,.53.12.82.59.82.14,0,.33,0,.48-.05v.54c-.19.07-.46.09-.68.09-.71,0-1.06-.36-1.06-1.18v-3.34h-.91v-.58Z"/>
        <path class="cls-4" d="M118.78,293.22c0,1.42-.8,2.64-2.32,2.64-1.4,0-2.25-1.12-2.25-2.63s.82-2.64,2.31-2.64c1.36,0,2.26,1.05,2.26,2.62ZM114.91,293.23c0,1.15.6,2.05,1.59,2.05s1.58-.83,1.58-2.04-.56-2.05-1.6-2.05-1.57.87-1.57,2.05Z"/>
        <path class="cls-4" d="M119.98,288.39h.67v3.11c.24-.47.71-.91,1.67-.91,1.22,0,2.06,1,2.06,2.53s-.78,2.74-2.19,2.74c-.83,0-1.28-.32-1.54-.86,0,.29-.01.6-.03.74h-.65c.01-.57.01-1.14.01-1.71v-5.65ZM123.67,293.13c0-1.18-.57-1.95-1.48-1.95-1.17,0-1.58.79-1.58,2.05,0,1.12.37,2.03,1.53,2.03.96,0,1.53-.81,1.53-2.14Z"/>
        <path class="cls-4" d="M125.92,293.33c0,1.17.6,1.94,1.51,1.94s1.17-.48,1.34-.87h.68c-.21.65-.74,1.46-2.04,1.46-1.55,0-2.17-1.3-2.17-2.59,0-1.46.73-2.68,2.23-2.68,1.58,0,2.09,1.32,2.09,2.33,0,.15,0,.28-.01.41h-3.63ZM128.88,292.81c0-.92-.5-1.65-1.42-1.65s-1.4.67-1.5,1.65h2.93Z"/>
        <path class="cls-4" d="M130.75,292.08c0-.78,0-1.16-.01-1.37h.66c.01.15.02.51.02,1.08.28-.72.9-1.17,1.72-1.2v.69c-1.04.05-1.72.69-1.72,1.92v2.54h-.67v-3.66Z"/>
        <path class="cls-4" d="M136.36,295.74v-.04c0-.88.67-1.88,2-2.91,1.1-.85,1.39-1.11,1.39-1.9,0-.69-.38-1.26-1.25-1.26s-1.28.42-1.44,1.31h-.67c.12-1.11.82-1.91,2.1-1.91,1.4,0,1.97.93,1.97,1.83,0,1.01-.43,1.37-1.64,2.34-.94.75-1.48,1.33-1.67,1.91h3.58l-.11.62h-4.26Z"/>
        <path class="cls-4" d="M145.62,289.17v.59c-1.18,1.57-2.26,4.03-2.63,5.98h-.7c.32-1.85,1.49-4.47,2.61-5.96h-3.51v-.61h4.23Z"/>
        <path class="cls-4" d="M149.81,292.88v.62h-4.07v-.62h4.07Z"/>
        <path class="cls-4" d="M151.11,290.68c.11-.81.68-1.64,2-1.64s1.9.82,1.9,1.67c0,.81-.48,1.23-.9,1.37v.02c.65.2,1.19.72,1.19,1.69,0,1.08-.68,2.06-2.21,2.06-1.42,0-2.07-.91-2.18-1.78h.68c.15.63.64,1.19,1.54,1.19,1.04,0,1.46-.7,1.46-1.46,0-.97-.62-1.38-1.55-1.38h-.43v-.58h.35c.94,0,1.35-.38,1.35-1.12,0-.65-.44-1.09-1.23-1.09-.83,0-1.17.44-1.32,1.04h-.66Z"/>
        <path class="cls-4" d="M157.61,295.74v-5.76c-.33.27-1.05.6-1.43.68v-.58c.46-.14,1.1-.53,1.58-.96h.54v6.62h-.69Z"/>
        <path class="cls-4" d="M159.16,296.89c.51-1.04.67-1.92.71-2.51h.68c-.08.86-.4,1.87-.81,2.51h-.57Z"/>
        <path class="cls-4" d="M164.04,295.74v-.04c0-.88.67-1.88,2-2.91,1.1-.85,1.39-1.11,1.39-1.9,0-.69-.38-1.26-1.25-1.26s-1.28.42-1.44,1.31h-.67c.12-1.11.82-1.91,2.1-1.91,1.39,0,1.97.93,1.97,1.83,0,1.01-.43,1.37-1.64,2.34-.94.75-1.48,1.33-1.67,1.91h3.58l-.11.62h-4.26Z"/>
        <path class="cls-4" d="M173.74,292.41c0,1.56-.42,3.46-2.22,3.46s-2.21-1.75-2.21-3.41.5-3.41,2.24-3.41,2.19,1.74,2.19,3.36ZM170.04,292.46c0,1.27.25,2.8,1.49,2.8s1.5-1.47,1.5-2.85c0-1.26-.24-2.76-1.46-2.76s-1.52,1.36-1.52,2.81Z"/>
        <path class="cls-4" d="M174.75,295.74v-.04c0-.88.67-1.88,2-2.91,1.1-.85,1.39-1.11,1.39-1.9,0-.69-.38-1.26-1.25-1.26s-1.28.42-1.44,1.31h-.67c.12-1.11.82-1.91,2.1-1.91,1.39,0,1.97.93,1.97,1.83,0,1.01-.43,1.37-1.64,2.34-.94.75-1.48,1.33-1.67,1.91h3.58l-.11.62h-4.26Z"/>
        <path class="cls-4" d="M183.94,289.78h-2.79c-.07.59-.25,1.72-.32,2.11.29-.35.74-.59,1.45-.59,1.17,0,1.96.8,1.96,2.18,0,1.29-.67,2.39-2.19,2.39-1.13,0-1.94-.64-2.12-1.74h.69c.16.65.64,1.15,1.46,1.15.97,0,1.46-.69,1.46-1.75,0-.91-.39-1.62-1.36-1.62-.86,0-1.22.36-1.48.94l-.64-.15c.2-.87.44-2.72.54-3.52h3.45l-.09.61Z"/>
      </g>
    </g>
  </g>
</svg>