<?xml version="1.0" encoding="UTF-8"?>
<svg id="Calque_2" xmlns="http://www.w3.org/2000/svg" viewBox="0 0 56.69 56.69">
  <defs>
    <style>
      .cls-1 {
        fill: #fff;
      }

      .cls-2 {
        fill: #e51717;
      }
    </style>
  </defs>
  <g id="info">
    <g>
      <polygon class="cls-2" points="28.35 28.35 28.35 28.35 28.35 28.35 28.35 28.35"/>
      <polygon class="cls-2" points="28.35 28.35 28.35 28.35 28.35 28.35 28.35 28.35"/>
      <path class="cls-2" d="M28.35,28.35l24.55,14.18c2.41-4.17,3.79-9.01,3.79-14.18h-28.35Z"/>
      <path class="cls-1" d="M14.17,52.9c4.17,2.41,9.01,3.79,14.18,3.79v-28.35l-14.18,24.55Z"/>
      <path class="cls-2" d="M3.79,42.52c2.49,4.3,6.08,7.89,10.38,10.38l14.18-24.55L3.79,42.52Z"/>
      <path class="cls-1" d="M0,28.35c0,5.16,1.38,10.01,3.79,14.18l24.55-14.18H0Z"/>
      <path class="cls-2" d="M28.35,28.35L3.79,14.17C1.38,18.34,0,23.18,0,28.35h28.35Z"/>
      <path class="cls-2" d="M28.35,56.69c5.16,0,10.01-1.38,14.18-3.79l-14.18-24.55v28.35Z"/>
      <path class="cls-1" d="M28.35,28.35l14.18,24.55c4.3-2.49,7.89-6.08,10.38-10.38l-24.55-14.18h0Z"/>
      <path class="cls-1" d="M14.17,3.79c-4.3,2.49-7.89,6.08-10.38,10.38l24.55,14.18L14.17,3.79Z"/>
      <path class="cls-1" d="M28.35,28.35h28.35c0-5.16-1.38-10.01-3.79-14.18l-24.55,14.18h0Z"/>
      <path class="cls-1" d="M42.52,3.79c-4.17-2.41-9.01-3.79-14.18-3.79v28.35L42.52,3.79Z"/>
      <path class="cls-2" d="M28.35,28.35l24.55-14.18c-2.49-4.3-6.08-7.89-10.38-10.38l-14.18,24.55h0Z"/>
      <path class="cls-2" d="M28.35,0c-5.16,0-10.01,1.38-14.18,3.79l14.18,24.55V0Z"/>
    </g>
  </g>
</svg>